<mxfile host="app.diagrams.net" modified="2022-04-24T05:49:17.182Z" agent="5.0 (Windows NT 10.0; Win64; x64) AppleWebKit/537.36 (KHTML, like Gecko) Chrome/100.0.4896.127 Safari/537.36" etag="Ejrpz3F-jeEOJ9zeFdjs" version="17.1.1" type="github">
  <diagram id="tSgCmTQa-p7S9aSJSKAo" name="Page-1">
    <mxGraphModel dx="716" dy="399" grid="1" gridSize="10" guides="1" tooltips="1" connect="1" arrows="1" fold="1" page="1" pageScale="1" pageWidth="827" pageHeight="1169" math="0" shadow="0">
      <root>
        <mxCell id="0" />
        <mxCell id="1" parent="0" />
        <mxCell id="ncxUFKPIvJ4_nUZDVNow-1" value="" style="rounded=0;whiteSpace=wrap;html=1;" vertex="1" parent="1">
          <mxGeometry x="240" y="80" width="320" height="30" as="geometry" />
        </mxCell>
        <mxCell id="ncxUFKPIvJ4_nUZDVNow-2" value="" style="rounded=0;whiteSpace=wrap;html=1;" vertex="1" parent="1">
          <mxGeometry x="240" y="140" width="320" height="30" as="geometry" />
        </mxCell>
        <mxCell id="ncxUFKPIvJ4_nUZDVNow-3" value="" style="rounded=0;whiteSpace=wrap;html=1;" vertex="1" parent="1">
          <mxGeometry x="240" y="200" width="320" height="30" as="geometry" />
        </mxCell>
        <mxCell id="ncxUFKPIvJ4_nUZDVNow-4" value="" style="rounded=0;whiteSpace=wrap;html=1;" vertex="1" parent="1">
          <mxGeometry x="240" y="260" width="320" height="30" as="geometry" />
        </mxCell>
        <mxCell id="ncxUFKPIvJ4_nUZDVNow-5" value="" style="rounded=0;whiteSpace=wrap;html=1;" vertex="1" parent="1">
          <mxGeometry x="240" y="320" width="320" height="30" as="geometry" />
        </mxCell>
        <mxCell id="ncxUFKPIvJ4_nUZDVNow-6" value="A类" style="text;html=1;strokeColor=none;fillColor=none;align=center;verticalAlign=middle;whiteSpace=wrap;rounded=0;" vertex="1" parent="1">
          <mxGeometry x="170" y="80" width="60" height="30" as="geometry" />
        </mxCell>
        <mxCell id="ncxUFKPIvJ4_nUZDVNow-7" value="B类" style="text;html=1;strokeColor=none;fillColor=none;align=center;verticalAlign=middle;whiteSpace=wrap;rounded=0;" vertex="1" parent="1">
          <mxGeometry x="170" y="140" width="60" height="30" as="geometry" />
        </mxCell>
        <mxCell id="ncxUFKPIvJ4_nUZDVNow-8" value="C类" style="text;html=1;strokeColor=none;fillColor=none;align=center;verticalAlign=middle;whiteSpace=wrap;rounded=0;" vertex="1" parent="1">
          <mxGeometry x="170" y="200" width="60" height="30" as="geometry" />
        </mxCell>
        <mxCell id="ncxUFKPIvJ4_nUZDVNow-9" value="D类" style="text;html=1;strokeColor=none;fillColor=none;align=center;verticalAlign=middle;whiteSpace=wrap;rounded=0;" vertex="1" parent="1">
          <mxGeometry x="170" y="260" width="60" height="30" as="geometry" />
        </mxCell>
        <mxCell id="ncxUFKPIvJ4_nUZDVNow-10" value="E类" style="text;html=1;strokeColor=none;fillColor=none;align=center;verticalAlign=middle;whiteSpace=wrap;rounded=0;" vertex="1" parent="1">
          <mxGeometry x="170" y="320" width="60" height="30" as="geometry" />
        </mxCell>
        <mxCell id="ncxUFKPIvJ4_nUZDVNow-11" value="" style="endArrow=none;html=1;rounded=0;" edge="1" parent="1">
          <mxGeometry width="50" height="50" relative="1" as="geometry">
            <mxPoint x="280" y="350" as="sourcePoint" />
            <mxPoint x="280" y="320" as="targetPoint" />
          </mxGeometry>
        </mxCell>
        <mxCell id="ncxUFKPIvJ4_nUZDVNow-12" value="" style="endArrow=none;html=1;rounded=0;" edge="1" parent="1">
          <mxGeometry width="50" height="50" relative="1" as="geometry">
            <mxPoint x="280" y="290" as="sourcePoint" />
            <mxPoint x="280" y="260" as="targetPoint" />
          </mxGeometry>
        </mxCell>
        <mxCell id="ncxUFKPIvJ4_nUZDVNow-13" value="" style="endArrow=none;html=1;rounded=0;" edge="1" parent="1">
          <mxGeometry width="50" height="50" relative="1" as="geometry">
            <mxPoint x="480" y="230" as="sourcePoint" />
            <mxPoint x="480" y="200" as="targetPoint" />
          </mxGeometry>
        </mxCell>
        <mxCell id="ncxUFKPIvJ4_nUZDVNow-14" value="" style="endArrow=none;html=1;rounded=0;" edge="1" parent="1">
          <mxGeometry width="50" height="50" relative="1" as="geometry">
            <mxPoint x="270" y="230" as="sourcePoint" />
            <mxPoint x="270" y="200" as="targetPoint" />
          </mxGeometry>
        </mxCell>
        <mxCell id="ncxUFKPIvJ4_nUZDVNow-15" value="" style="endArrow=none;html=1;rounded=0;" edge="1" parent="1">
          <mxGeometry width="50" height="50" relative="1" as="geometry">
            <mxPoint x="399.5" y="170" as="sourcePoint" />
            <mxPoint x="399.5" y="140" as="targetPoint" />
          </mxGeometry>
        </mxCell>
        <mxCell id="ncxUFKPIvJ4_nUZDVNow-16" value="" style="endArrow=none;html=1;rounded=0;" edge="1" parent="1">
          <mxGeometry width="50" height="50" relative="1" as="geometry">
            <mxPoint x="260" y="170" as="sourcePoint" />
            <mxPoint x="260" y="140" as="targetPoint" />
          </mxGeometry>
        </mxCell>
        <mxCell id="ncxUFKPIvJ4_nUZDVNow-17" value="" style="endArrow=none;html=1;rounded=0;" edge="1" parent="1">
          <mxGeometry width="50" height="50" relative="1" as="geometry">
            <mxPoint x="320" y="110" as="sourcePoint" />
            <mxPoint x="320" y="80" as="targetPoint" />
          </mxGeometry>
        </mxCell>
        <mxCell id="ncxUFKPIvJ4_nUZDVNow-18" value="" style="endArrow=none;html=1;rounded=0;" edge="1" parent="1">
          <mxGeometry width="50" height="50" relative="1" as="geometry">
            <mxPoint x="250" y="110" as="sourcePoint" />
            <mxPoint x="250" y="80" as="targetPoint" />
          </mxGeometry>
        </mxCell>
        <mxCell id="ncxUFKPIvJ4_nUZDVNow-19" value="0" style="text;html=1;strokeColor=none;fillColor=none;align=center;verticalAlign=middle;whiteSpace=wrap;rounded=0;" vertex="1" parent="1">
          <mxGeometry x="240" y="75" width="10" height="40" as="geometry" />
        </mxCell>
        <mxCell id="ncxUFKPIvJ4_nUZDVNow-22" value="10" style="text;html=1;strokeColor=none;fillColor=none;align=center;verticalAlign=middle;whiteSpace=wrap;rounded=0;" vertex="1" parent="1">
          <mxGeometry x="240" y="140" width="20" height="30" as="geometry" />
        </mxCell>
        <mxCell id="ncxUFKPIvJ4_nUZDVNow-23" value="110" style="text;html=1;strokeColor=none;fillColor=none;align=center;verticalAlign=middle;whiteSpace=wrap;rounded=0;" vertex="1" parent="1">
          <mxGeometry x="240" y="200" width="30" height="30" as="geometry" />
        </mxCell>
        <mxCell id="ncxUFKPIvJ4_nUZDVNow-24" value="1110" style="text;html=1;strokeColor=none;fillColor=none;align=center;verticalAlign=middle;whiteSpace=wrap;rounded=0;" vertex="1" parent="1">
          <mxGeometry x="240" y="260" width="40" height="30" as="geometry" />
        </mxCell>
        <mxCell id="ncxUFKPIvJ4_nUZDVNow-25" value="1111" style="text;html=1;strokeColor=none;fillColor=none;align=center;verticalAlign=middle;whiteSpace=wrap;rounded=0;" vertex="1" parent="1">
          <mxGeometry x="240" y="320" width="40" height="30" as="geometry" />
        </mxCell>
        <mxCell id="ncxUFKPIvJ4_nUZDVNow-26" value="网络地址" style="text;html=1;strokeColor=none;fillColor=none;align=center;verticalAlign=middle;whiteSpace=wrap;rounded=0;" vertex="1" parent="1">
          <mxGeometry x="250" y="80" width="70" height="30" as="geometry" />
        </mxCell>
        <mxCell id="ncxUFKPIvJ4_nUZDVNow-27" value="网络地址" style="text;html=1;strokeColor=none;fillColor=none;align=center;verticalAlign=middle;whiteSpace=wrap;rounded=0;" vertex="1" parent="1">
          <mxGeometry x="260" y="140" width="140" height="30" as="geometry" />
        </mxCell>
        <mxCell id="ncxUFKPIvJ4_nUZDVNow-28" value="网络地址" style="text;html=1;strokeColor=none;fillColor=none;align=center;verticalAlign=middle;whiteSpace=wrap;rounded=0;" vertex="1" parent="1">
          <mxGeometry x="270" y="200" width="210" height="30" as="geometry" />
        </mxCell>
        <mxCell id="ncxUFKPIvJ4_nUZDVNow-29" value="主机地址" style="text;html=1;strokeColor=none;fillColor=none;align=center;verticalAlign=middle;whiteSpace=wrap;rounded=0;" vertex="1" parent="1">
          <mxGeometry x="320" y="80" width="240" height="30" as="geometry" />
        </mxCell>
        <mxCell id="ncxUFKPIvJ4_nUZDVNow-30" value="主机地址" style="text;html=1;strokeColor=none;fillColor=none;align=center;verticalAlign=middle;whiteSpace=wrap;rounded=0;" vertex="1" parent="1">
          <mxGeometry x="400" y="140" width="160" height="30" as="geometry" />
        </mxCell>
        <mxCell id="ncxUFKPIvJ4_nUZDVNow-31" value="主机地址" style="text;html=1;strokeColor=none;fillColor=none;align=center;verticalAlign=middle;whiteSpace=wrap;rounded=0;" vertex="1" parent="1">
          <mxGeometry x="480" y="200" width="80" height="30" as="geometry" />
        </mxCell>
        <mxCell id="ncxUFKPIvJ4_nUZDVNow-32" value="组播地址" style="text;html=1;strokeColor=none;fillColor=none;align=center;verticalAlign=middle;whiteSpace=wrap;rounded=0;" vertex="1" parent="1">
          <mxGeometry x="280" y="260" width="280" height="30" as="geometry" />
        </mxCell>
        <mxCell id="ncxUFKPIvJ4_nUZDVNow-33" value="试验地址" style="text;html=1;strokeColor=none;fillColor=none;align=center;verticalAlign=middle;whiteSpace=wrap;rounded=0;" vertex="1" parent="1">
          <mxGeometry x="280" y="320" width="280" height="30" as="geometry" />
        </mxCell>
        <mxCell id="ncxUFKPIvJ4_nUZDVNow-35" value="0" style="text;html=1;strokeColor=none;fillColor=none;align=center;verticalAlign=middle;whiteSpace=wrap;rounded=0;fontSize=12;" vertex="1" parent="1">
          <mxGeometry x="235" y="50" width="20" height="30" as="geometry" />
        </mxCell>
        <mxCell id="ncxUFKPIvJ4_nUZDVNow-36" value="1" style="text;html=1;strokeColor=none;fillColor=none;align=center;verticalAlign=middle;whiteSpace=wrap;rounded=0;fontSize=12;" vertex="1" parent="1">
          <mxGeometry x="245" y="50" width="20" height="30" as="geometry" />
        </mxCell>
        <mxCell id="ncxUFKPIvJ4_nUZDVNow-37" value="7" style="text;html=1;strokeColor=none;fillColor=none;align=center;verticalAlign=middle;whiteSpace=wrap;rounded=0;fontSize=12;" vertex="1" parent="1">
          <mxGeometry x="310" y="50" width="10" height="30" as="geometry" />
        </mxCell>
        <mxCell id="ncxUFKPIvJ4_nUZDVNow-38" value="8" style="text;html=1;strokeColor=none;fillColor=none;align=center;verticalAlign=middle;whiteSpace=wrap;rounded=0;fontSize=12;" vertex="1" parent="1">
          <mxGeometry x="320" y="50" width="10" height="30" as="geometry" />
        </mxCell>
        <mxCell id="ncxUFKPIvJ4_nUZDVNow-39" value="16" style="text;html=1;strokeColor=none;fillColor=none;align=center;verticalAlign=middle;whiteSpace=wrap;rounded=0;fontSize=12;" vertex="1" parent="1">
          <mxGeometry x="400" y="50" width="10" height="30" as="geometry" />
        </mxCell>
        <mxCell id="ncxUFKPIvJ4_nUZDVNow-40" value="24" style="text;html=1;strokeColor=none;fillColor=none;align=center;verticalAlign=middle;whiteSpace=wrap;rounded=0;fontSize=12;" vertex="1" parent="1">
          <mxGeometry x="480" y="50" width="10" height="30" as="geometry" />
        </mxCell>
        <mxCell id="ncxUFKPIvJ4_nUZDVNow-41" value="31" style="text;html=1;strokeColor=none;fillColor=none;align=center;verticalAlign=middle;whiteSpace=wrap;rounded=0;fontSize=12;" vertex="1" parent="1">
          <mxGeometry x="550" y="50" width="10" height="30" as="geometry" />
        </mxCell>
      </root>
    </mxGraphModel>
  </diagram>
</mxfile>
